<svg width="45" height="45" viewBox="0 0 45 45" fill="none" xmlns="http://www.w3.org/2000/svg">
<path d="M22.5 11.029L26.9741 0L26.8879 11.9023L35.2432 3.42837L30.6073 14.3927L41.5716 9.75683L33.0977 18.1121L45 18.0259L33.971 22.5L45 26.9741L33.0977 26.8879L41.5716 35.2432L30.6073 30.6073L35.2432 41.5716L26.8879 33.0977L26.9741 45L22.5 33.971L18.0259 45L18.1121 33.0977L9.75683 41.5716L14.3927 30.6073L3.42837 35.2432L11.9023 26.8879L0 26.9741L11.029 22.5L0 18.0259L11.9023 18.1121L3.42837 9.75683L14.3927 14.3927L9.75683 3.42837L18.1121 11.9023L18.0259 0L22.5 11.029Z" fill="black"/>
</svg>
