<svg width="752" height="496" viewBox="0 0 752 496" fill="none" xmlns="http://www.w3.org/2000/svg">
<path d="M125.363 0.0972444L0.0315552 125.465L125.363 250.833L250.695 125.465L125.363 0.0972444Z" fill="#FAE938"/>
<path d="M376.079 5.48356e-05L250.747 125.368L376.079 250.736L501.411 125.368L376.079 5.48356e-05Z" fill="#FAE938"/>
<path d="M626.668 0.0293517L501.336 125.397L626.668 250.765L752 125.397L626.668 0.0293517Z" fill="#FAE938"/>
<path d="M125.379 250.782L0 340.594L125.379 430.585L250.579 340.594L125.379 250.782Z" fill="#FAE938"/>
<path d="M250.579 340.594L375.958 430.585L501.337 340.594L375.958 250.782L250.579 340.594Z" fill="#FAE938"/>
<path d="M626.538 250.782L501.338 340.594L626.538 430.585L751.917 340.594L626.538 250.782Z" fill="#FAE938"/>
<path d="M0 493.203L125.379 556L250.579 493.203L125.379 430.585L0 493.203Z" fill="#FAE938"/>
<path d="M250.579 493.203L375.958 556L501.337 493.203L375.958 430.585L250.579 493.203Z" fill="#FAE938"/>
<path d="M626.538 556L751.917 493.203L626.538 430.585L501.338 493.203L626.538 556Z" fill="#FAE938"/>
<path d="M30.378 144.378L47 114L63.622 144.378L94 161L63.622 177.622L47 208L30.378 177.622L0 161L30.378 144.378Z" fill="#FF8A8A"/>
<path d="M688.378 367.378L705 337L721.622 367.378L752 384L721.622 400.622L705 431L688.378 400.622L658 384L688.378 367.378Z" fill="#FF8A8A"/>
</svg>
