<svg width="340" height="289" viewBox="0 0 340 289" fill="none" xmlns="http://www.w3.org/2000/svg">
<path d="M30.9153 103.871L110.528 237.74C110.833 238.305 111.497 238.572 112.13 238.491C112.764 238.41 113.304 237.963 113.49 237.342L127.53 190.458L165.485 254.199C165.79 254.764 166.454 255.03 167.087 254.949C167.721 254.868 168.261 254.421 168.446 253.8L182.487 206.916L220.38 270.638C220.684 271.203 221.349 271.47 221.982 271.389C222.615 271.308 223.155 270.86 223.341 270.239L237.382 223.355L275.336 287.096C275.641 287.661 276.305 287.928 276.939 287.847C277.572 287.766 278.112 287.319 278.298 286.698L338.775 84.7548C338.961 84.1338 338.756 83.4634 338.271 83.0476C338.103 82.9297 337.874 82.7932 337.687 82.7374C337.315 82.6259 336.905 82.6385 336.502 82.856L269.759 115.243L283.818 68.2966C284.004 67.6756 283.799 67.0052 283.314 66.5894C283.147 66.4715 282.917 66.335 282.731 66.2792C282.358 66.1676 281.948 66.1803 281.545 66.3978L214.802 98.7845L228.861 51.8384C229.047 51.2174 228.842 50.5469 228.358 50.1312C228.19 50.0133 227.96 49.8768 227.774 49.821C227.401 49.7094 226.991 49.722 226.588 49.9396L159.845 82.3263L173.905 35.3802C174.091 34.7592 173.885 34.0887 173.401 33.673C173.233 33.5551 173.003 33.4186 172.817 33.3628C172.444 33.2512 172.035 33.2638 171.631 33.4813L31.5413 101.555C31.1378 101.772 30.8399 102.089 30.7097 102.524C30.5795 102.959 30.6171 103.511 30.9153 103.871ZM166.321 249.374L128.733 186.216L142.587 139.953L180.176 203.111L166.321 249.374ZM126.545 182.449L89.498 120.197L154.664 88.5563L126.545 182.449ZM181.44 198.888L144.393 136.637L209.559 104.996L181.44 198.888ZM221.278 265.832L183.69 202.675L197.544 156.412L235.132 219.569L221.278 265.832ZM199.349 153.095L264.515 121.454L236.397 215.346L199.349 153.095ZM334.529 87.4081L276.172 282.272L238.584 219.114L268.414 119.509L334.529 87.4081ZM279.635 70.9684L265.78 117.232L199.664 149.332L213.519 103.069L279.635 70.9684ZM224.678 54.5102L210.823 100.773L144.708 132.874L158.562 86.6111L224.678 54.5102ZM169.783 38.0706L155.928 84.3337L86.4795 118.075C86.076 118.293 85.7781 118.61 85.6479 119.044C85.5177 119.479 85.5739 119.969 85.81 120.311L125.281 186.671L111.426 232.934L34.5412 103.739L169.783 38.0706Z" fill="#FF8A8A"/>
</svg>
