<svg width="102" height="102" viewBox="0 0 102 102" fill="none" xmlns="http://www.w3.org/2000/svg">
<path d="M0.861511 50.6178C0.861511 88.8623 42.2622 112.765 75.3829 93.6426C90.7541 84.7681 100.223 68.367 100.223 50.6178C100.223 12.3733 58.8225 -11.5293 25.7018 7.59294C10.3306 16.4674 0.861511 32.8685 0.861511 50.6178Z" fill="#FF8A8A" stroke="#231F20" stroke-width="1.72297" stroke-miterlimit="10"/>
<path d="M17.4215 50.6179C17.4215 76.114 45.0222 92.0494 67.1026 79.3011C77.3501 73.3848 83.663 62.4508 83.663 50.6179C83.663 25.1215 56.0623 9.18633 33.9819 21.9347C23.7344 27.851 17.4215 38.785 17.4215 50.6179Z" fill="white" stroke="#231F20" stroke-width="1.72297" stroke-miterlimit="10"/>
<path d="M54.2519 48.0011C54.2519 37.6674 51.7016 30.381 48.5218 30.381C45.3421 30.381 42.759 34.9515 42.759 44.9541C42.759 57.4405 48.0582 59.4608 56.4709 59.494C64.8836 59.5273 70.1496 56.9437 70.1829 53.7642C70.2161 50.5847 66.8376 48.0011 54.2519 48.0011Z" fill="#FF8A8A" stroke="#231F20" stroke-width="1.72297" stroke-miterlimit="10"/>
<path d="M70.9777 13.0922C76.0098 14.358 80.3763 17.482 83.1991 21.836" stroke="white" stroke-width="1.72297" stroke-miterlimit="10" stroke-linecap="round"/>
</svg>
