<svg width="251" height="251" viewBox="0 0 251 251" fill="none" xmlns="http://www.w3.org/2000/svg">
<g clip-path="url(#clip0_2_773)">
<path d="M181.737 184.88C181.753 184.441 181.747 184 181.719 183.562C185.682 177.875 189.344 171.984 192.69 165.913C198.59 155.334 204.995 142.924 207.743 136.257C215.126 137.362 222.195 132.86 224.314 125.703C225.39 123.699 226.002 121.484 226.113 119.21C226.407 113.167 223.558 104.902 218.921 100.742C217.227 99.2232 215.217 98.1017 213.035 97.4592C204.502 92.8841 193.919 97.2909 191.156 106.569L190.509 108.138C183.412 108.435 170.45 109.394 159.057 110.504C158.178 105.418 157.113 100.365 155.864 95.3566C158.312 93.3019 160.215 90.6754 161.4 87.7023C162.479 85.7054 163.1 83.4937 163.217 81.2271C163.528 75.1916 160.693 66.9315 156.086 62.7591C154.403 61.2359 152.403 60.1065 150.23 59.4527C141.692 54.837 131.07 59.2411 128.302 68.5436C127.041 71.4803 126.535 74.6873 126.843 77.8733C120.554 81.6614 114.476 85.7885 108.635 90.2355C102.798 83.0654 96.7809 76.0431 90.5909 69.1757C91.3254 67.4781 91.7461 65.6615 91.8322 63.8139C92.1057 57.7583 89.2651 49.511 84.6045 45.357C82.9075 43.8439 80.8939 42.7284 78.711 42.0918C70.1734 37.4762 59.5514 41.8798 56.7839 51.1823C55.0696 54.3877 54.58 58.1072 55.4068 61.6472C56.3039 65.4939 57.7571 70.4161 60.1528 73.5961C57.6445 80.8565 54.0445 92.0878 51.2281 102.138C49.2078 109.166 47.5756 116.304 46.3423 123.514C40.1822 122.912 36.5136 130.24 33.9234 136.524C32.499 139.98 30.9916 143.972 30.7893 147.468C30.5946 151.007 32.885 158.808 35.8326 160.86C40.3767 166.113 78.3418 182.205 100.593 191.377C122.835 200.545 161.117 215.881 168.039 215.354C174.407 216.291 178.163 208.75 180.806 202.34C183.337 196.199 185.744 188.923 181.737 184.88Z" fill="#00034A" stroke="#00034A" stroke-width="1.88309" stroke-miterlimit="10"/>
<path d="M205.621 129.917C213.002 131.02 220.069 126.517 222.187 119.36C226.775 110.81 222.342 100.203 213.035 97.4592C204.502 92.8839 193.919 97.2907 191.156 106.569L190.509 108.138C183.178 108.446 169.599 109.456 157.946 110.612C156.92 103.344 155.515 96.133 153.738 89.0104C156.189 86.9614 158.094 84.331 159.277 81.362C163.88 72.8419 159.503 62.243 150.23 59.4527C141.692 54.837 131.07 59.2411 128.302 68.5436C127.041 71.4803 126.535 74.6873 126.843 77.8733C120.554 81.6614 114.476 85.7885 108.635 90.2355C101.761 81.7925 94.6372 73.5568 87.272 65.5389L87.9186 63.9701C92.4849 55.4075 88.0256 44.8124 78.711 42.0918C70.1734 37.4762 59.5514 41.8798 56.7839 51.1823C53.2376 57.8119 55.1595 66.0434 61.2742 70.4183C58.8219 77.2077 54.4975 90.4699 51.2281 102.138C49.2078 109.166 47.5755 116.304 46.3423 123.514C40.1818 122.912 36.5136 130.24 33.9234 136.524C31.3332 142.808 28.4619 150.862 33.7101 154.519C38.2509 159.766 76.2192 175.865 98.4654 185.035C120.712 194.205 158.992 209.535 165.911 209.012C172.282 209.945 176.038 202.403 178.68 195.993C181.32 189.587 183.831 181.925 179.041 178.013C183.214 172.081 187.063 165.923 190.569 159.568C196.465 148.988 202.874 136.579 205.621 129.917Z" fill="#FF8A8A" stroke="#00034A" stroke-width="1.88309" stroke-miterlimit="10"/>
<path d="M70.6685 134.984C84.045 141.691 139.236 164.44 153.453 169.108L70.6685 134.984Z" fill="white"/>
<path d="M70.6685 134.984C84.045 141.691 139.236 164.44 153.453 169.108" stroke="#00034A" stroke-width="1.88309" stroke-miterlimit="10" stroke-linecap="round"/>
</g>
<defs>
<clipPath id="clip0_2_773">
<rect width="192" height="192" fill="white" transform="translate(73.1691) rotate(22.4012)"/>
</clipPath>
</defs>
</svg>
