<svg width="137" height="137" viewBox="0 0 137 137" fill="none" xmlns="http://www.w3.org/2000/svg">
<g clip-path="url(#clip0_2_683)">
<path d="M67.2499 1.81543C31.7326 1.81543 2.9455 30.606 2.9455 66.1164C2.9455 102.147 33.0855 135.219 69.7501 135.219C105.267 135.219 134.055 106.429 134.055 70.9148C134.055 34.8838 103.915 1.81543 67.2499 1.81543Z" fill="#00034A" stroke="#00034A" stroke-width="1.88309" stroke-miterlimit="10"/>
<path d="M67.2499 130.421C102.76 130.421 131.551 101.63 131.551 66.1198C131.554 30.6026 102.764 1.81543 67.2499 1.81543C31.7326 1.81543 2.9455 30.606 2.9455 66.1164C2.9455 101.634 31.736 130.421 67.2499 130.421Z" fill="#9BFF00" stroke="#00034A" stroke-width="1.88309" stroke-miterlimit="10"/>
<path d="M57.9168 120.526C48.5836 111.261 43.9359 91.7078 43.9359 66.1197C43.9359 40.528 48.5836 20.9747 57.9168 11.7067" stroke="#00034A" stroke-width="1.88309" stroke-miterlimit="10" stroke-linecap="round"/>
<path d="M76.5831 11.7067C85.9128 20.9747 90.5639 40.528 90.5639 66.1162C90.5639 91.7078 85.9128 111.261 76.5797 120.529" stroke="#00034A" stroke-width="1.88309" stroke-miterlimit="10" stroke-linecap="round"/>
<path d="M16.7312 46.3333C33.4692 44.018 50.351 42.9152 67.25 43.0351C84.1455 42.9152 101.031 44.018 117.769 46.3333" stroke="#00034A" stroke-width="1.88309" stroke-miterlimit="10" stroke-linecap="round"/>
<path d="M117.769 85.9027C101.031 88.218 84.1455 89.3209 67.25 89.201C50.351 89.3209 33.4692 88.218 16.7312 85.9027" stroke="#00034A" stroke-width="1.88309" stroke-miterlimit="10" stroke-linecap="round"/>
</g>
<defs>
<clipPath id="clip0_2_683">
<rect width="137" height="137" fill="white"/>
</clipPath>
</defs>
</svg>
