<svg width="235" height="235" viewBox="0 0 235 235" fill="none" xmlns="http://www.w3.org/2000/svg">
<g clip-path="url(#clip0_2_1166)">
<path d="M188.171 44.0387C192.904 46.2939 199.881 49.8345 187.971 68.4556C176.06 87.0767 171.024 85.1677 168.786 84.1779C166.548 83.1882 161.722 80.7574 168.986 59.7611C176.25 38.7647 183.497 41.7527 188.171 44.0387Z" fill="#FAE938" stroke="#231F20" stroke-width="1.72297" stroke-miterlimit="10"/>
<path d="M154.474 95.2474C153.856 97.2365 154.053 99.3898 155.022 101.234C155.991 103.077 157.653 104.461 159.642 105.079C161.631 105.698 163.784 105.501 165.628 104.532C167.472 103.563 168.855 101.901 169.474 99.9119C170.092 97.9229 169.895 95.7696 168.926 93.9257C167.957 92.0819 166.295 90.6985 164.306 90.0799C162.317 89.4614 160.164 89.6583 158.32 90.6274C156.476 91.5965 155.093 93.2584 154.474 95.2474Z" fill="#FAE938" stroke="#231F20" stroke-width="1.72297" stroke-miterlimit="10"/>
<path d="M214.555 74.9116C217.744 77.5678 222.276 81.5719 209.718 93.7739C197.16 105.976 193.678 103.474 192.126 102.012C190.573 100.55 187.329 98.0719 196.95 83.1939C206.57 68.3158 211.353 72.3001 214.555 74.9116Z" fill="#FAE938" stroke="#231F20" stroke-width="1.72297" stroke-miterlimit="10"/>
<path d="M177.848 111.084C177.358 112.659 177.514 114.363 178.281 115.823C179.049 117.283 180.364 118.378 181.939 118.868C183.514 119.357 185.218 119.201 186.678 118.434C188.138 117.667 189.233 116.351 189.723 114.777C189.965 113.997 190.052 113.177 189.977 112.364C189.903 111.551 189.669 110.76 189.289 110.038C188.909 109.315 188.391 108.674 187.763 108.152C187.136 107.629 186.411 107.236 185.632 106.993C184.852 106.751 184.032 106.664 183.219 106.738C182.406 106.813 181.615 107.047 180.893 107.426C180.17 107.806 179.529 108.325 179.007 108.952C178.484 109.58 178.091 110.304 177.848 111.084Z" fill="#FAE938" stroke="#231F20" stroke-width="1.72297" stroke-miterlimit="10"/>
<path d="M103.286 61.8021C98.7389 60.6817 94.4346 59.8816 90.2949 59.1818C73.8841 56.3794 51.7654 54.2989 46.0178 62.5479C40.9919 66.2725 35.7342 89.9489 32.3648 109.757C28.9954 129.566 26.0669 153.624 29.5435 158.818C32.2537 168.522 53.7885 173.897 70.1993 176.699C86.6102 179.502 108.729 181.582 114.521 173.347C119.516 169.564 124.774 145.888 128.129 126.124C129.228 119.758 130.273 112.935 131.058 106.472C132.101 98.0816 112.024 63.9318 103.286 61.8021Z" fill="#9BFF00" stroke="#231F20" stroke-width="1.72297" stroke-miterlimit="10"/>
<path d="M96.7856 73.7331C95.3056 82.4281 93.7809 91.1092 97.4331 96.2105C101.085 101.312 109.722 102.823 118.417 104.303" stroke="#231F20" stroke-width="1.72297" stroke-miterlimit="10" stroke-linecap="round"/>
<path d="M107.345 76.7724C110.127 79.8214 112.511 83.2114 114.44 86.8611" stroke="white" stroke-width="1.72297" stroke-linecap="round" stroke-linejoin="round"/>
<path d="M178.984 179.538C178.63 175.952 170.436 159.794 163.68 146.726C156.924 133.659 148.176 117.866 145.289 115.5C140.967 110.19 134.135 112.325 129.453 114.785C124.771 117.246 119.093 121.649 121.046 128.278C121.078 128.612 121.139 128.942 121.229 129.265C119.184 130.49 116.966 131.954 114.489 133.779C109.706 137.079 105.137 140.678 100.808 144.554C99.6357 143.634 98.2055 143.103 96.717 143.035C95.2284 142.967 93.7558 143.366 92.5048 144.175C91.6283 144.524 90.8295 145.043 90.1544 145.702C89.4793 146.361 88.9412 147.148 88.5712 148.015C88.2012 148.883 88.0066 149.816 87.9985 150.759C87.9904 151.703 88.169 152.638 88.5241 153.512C90.439 158.6 92.7133 163.545 95.3299 168.309C72.685 186.97 66.7602 190.121 69.8668 196.032C72.9735 201.943 78.7951 198.809 107.097 190.768C109.567 195.6 112.373 200.252 115.496 204.69C116.559 205.942 117.976 206.842 119.56 207.274C121.145 207.705 122.823 207.647 124.373 207.107C125.924 206.566 127.275 205.57 128.248 204.247C129.222 202.925 129.772 201.339 129.827 199.698C135.427 198.341 140.947 196.675 146.361 194.705C149.268 193.7 151.866 192.745 153.945 191.727L154.655 192.437C158.977 197.747 165.809 195.612 170.505 193.107C175.201 190.602 180.892 186.154 178.984 179.538Z" fill="#FF8A8A" stroke="#231F20" stroke-width="1.72297" stroke-miterlimit="10"/>
<path d="M134.209 121.846C139.184 119.231 139.59 120.287 145.021 129.271" stroke="white" stroke-width="1.72297" stroke-linecap="round" stroke-linejoin="round"/>
<path d="M127.076 139.749C133.537 153.769 140.724 167.443 148.607 180.716" stroke="#231F20" stroke-width="1.72297" stroke-miterlimit="10" stroke-linecap="round"/>
</g>
<defs>
<clipPath id="clip0_2_1166">
<rect width="187" height="187" fill="white" transform="translate(55.5301) rotate(17.2746)"/>
</clipPath>
</defs>
</svg>
