<svg width="154" height="154" viewBox="0 0 154 154" fill="none" xmlns="http://www.w3.org/2000/svg">
<path d="M150.954 102.529C145.654 90.7425 139.603 79.3093 132.838 68.2995C149.592 44.1293 146.047 25.1441 137.163 16.3311C128.279 7.52202 109.189 4.05179 85.1511 20.9702C74.1106 14.2307 62.6452 8.21465 50.8268 2.95976C46.5436 1.05364 41.7866 0.480232 37.1735 1.314C32.5604 2.14777 28.3045 4.3502 24.9583 7.63526C19.146 13.4837 17.7798 23.7002 25.1078 34.1513C31.6901 43.6632 39.0531 52.6097 47.1203 60.898C39.7353 70.8638 33.2789 81.4861 27.8321 92.6315C23.2364 90.6052 19.4976 89.2381 18.2527 88.7326C15.792 88.0589 13.1948 88.0657 10.7377 88.7523C8.28062 89.4389 6.05567 90.7796 4.29987 92.6315C2.42414 94.4315 1.25221 96.8425 0.995075 99.4302C0.737943 102.018 1.41251 104.613 2.89731 106.747C8.93726 115.406 15.8296 123.437 23.4709 130.719C30.7621 138.325 38.8171 145.158 47.5084 151.112C49.6453 152.535 52.2156 153.159 54.767 152.874C57.3183 152.588 59.6873 151.411 61.4571 149.551C63.3074 147.779 64.6377 145.535 65.3039 143.061C65.9701 140.587 65.9467 137.978 65.2364 135.516C64.1102 132.264 62.8095 129.075 61.3399 125.963C72.4745 120.431 83.0885 113.906 93.0531 106.468C101.382 114.49 110.361 121.806 119.9 128.341C130.223 135.633 140.473 134.189 146.278 128.341C149.544 124.999 151.734 120.755 152.567 116.156C153.4 111.556 152.837 106.813 150.95 102.537L150.954 102.529Z" fill="#9BFF00" stroke="#1B1B1D" stroke-width="1.88309" stroke-miterlimit="10"/>
</svg>
