<svg width="284" height="273" viewBox="0 0 284 273" fill="none" xmlns="http://www.w3.org/2000/svg">
<g clip-path="url(#clip0_2_1155)">
<path d="M233.73 147.609C230.49 142.844 226.342 138.767 221.522 135.61C227.914 121.243 232.034 108.316 230.22 103.343C229.796 91.334 204.057 75.1236 183.956 64.1832C163.855 53.2427 136.267 40.4284 126.135 46.6927C120.974 47.8692 112.256 58.5315 103.715 71.4913C98.4472 69.1572 92.7704 67.887 87.0104 67.7535C70.5327 65.5668 53.4504 90.8317 42.51 110.933C31.5695 131.034 19.6272 159.096 30.2971 171.626C34.2877 180.579 69.286 202.84 99.5294 219.301C129.773 235.762 167.377 253.016 177.154 251.556C193.745 253.864 210.689 228.524 221.63 208.423C232.57 188.322 244.375 160.184 233.73 147.609Z" fill="#FF8A8A" stroke="#231F20" stroke-width="1.72297" stroke-miterlimit="10"/>
<path d="M60.4075 120.674C56.532 127.794 55.6439 136.162 57.9384 143.937C60.233 151.713 65.5222 158.258 72.6425 162.133C79.7629 166.009 88.1311 166.897 95.9063 164.602C103.681 162.308 110.227 157.018 114.102 149.898C117.977 142.778 118.866 134.41 116.571 126.634C114.277 118.859 108.987 112.314 101.867 108.439C94.7466 104.563 86.3784 103.675 78.6033 105.97C70.8281 108.264 64.2829 113.553 60.4075 120.674Z" fill="white" stroke="#231F20" stroke-width="1.72297" stroke-miterlimit="10"/>
<path d="M78.3063 130.416C77.6667 131.591 77.2648 132.881 77.1235 134.211C76.9823 135.542 77.1046 136.887 77.4833 138.17C77.862 139.454 78.4898 140.65 79.3307 141.69C80.1717 142.731 81.2094 143.596 82.3846 144.236C83.5599 144.875 84.8496 145.277 86.1801 145.418C87.5106 145.559 88.8559 145.437 90.1392 145.059C91.4225 144.68 92.6187 144.052 93.6593 143.211C94.7 142.37 95.5649 141.332 96.2045 140.157C96.8441 138.982 97.246 137.692 97.3872 136.362C97.5285 135.031 97.4062 133.686 97.0275 132.403C96.6488 131.119 96.021 129.923 95.1801 128.882C94.3391 127.842 93.3014 126.977 92.1261 126.337C90.9509 125.698 89.6612 125.296 88.3307 125.155C87.0002 125.013 85.6549 125.136 84.3716 125.514C83.0883 125.893 81.8921 126.521 80.8515 127.362C79.8108 128.203 78.9459 129.24 78.3063 130.416Z" fill="#FAE938" stroke="#231F20" stroke-width="1.72297" stroke-miterlimit="10"/>
<path d="M149.899 169.381C147.98 172.907 146.774 176.776 146.35 180.767C145.927 184.759 146.293 188.795 147.43 192.645C148.566 196.495 150.449 200.083 152.972 203.205C155.495 206.327 158.608 208.922 162.134 210.841C165.659 212.76 169.528 213.965 173.52 214.389C177.512 214.813 181.548 214.446 185.397 213.31C189.247 212.174 192.836 210.29 195.958 207.767C199.08 205.244 201.674 202.131 203.593 198.606C207.469 191.485 208.357 183.117 206.062 175.342C203.768 167.567 198.479 161.021 191.358 157.146C184.238 153.271 175.87 152.383 168.094 154.677C160.319 156.972 153.774 162.261 149.899 169.381Z" fill="white" stroke="#231F20" stroke-width="1.72297" stroke-miterlimit="10"/>
<path d="M98.0123 193.669C101.609 196.453 105.453 198.904 109.495 200.989C113.441 203.251 117.586 205.149 121.877 206.658" stroke="#231F20" stroke-width="1.72297" stroke-miterlimit="10" stroke-linecap="round"/>
<path d="M177.696 132.518C170.505 126.947 162.817 122.046 154.731 117.878C146.839 113.353 138.55 109.559 129.968 106.541" stroke="#231F20" stroke-width="1.72297" stroke-miterlimit="10" stroke-linecap="round"/>
<path d="M164.472 99.9794C173.88 105.1 183.93 110.57 193.077 116.5C195.307 112.229 196.535 107.506 196.667 102.69C197.069 95.8297 184.264 87.5514 174.213 82.0812C164.163 76.611 150.304 70.3769 144.716 74.4144C140.762 77.1584 137.479 80.7609 135.114 84.9524C144.809 89.8725 155.293 94.9838 164.472 99.9794Z" fill="white" stroke="#231F20" stroke-width="1.72297" stroke-miterlimit="10"/>
<path d="M167.797 179.123C166.506 181.496 166.209 184.286 166.974 186.878C167.739 189.469 169.502 191.651 171.876 192.943C174.249 194.235 177.039 194.531 179.63 193.766C182.222 193.001 184.404 191.238 185.696 188.865C186.987 186.491 187.283 183.702 186.519 181.11C185.754 178.518 183.991 176.336 181.617 175.045C179.244 173.753 176.454 173.457 173.863 174.222C171.271 174.987 169.089 176.75 167.797 179.123Z" fill="#FAE938" stroke="#231F20" stroke-width="1.72297" stroke-miterlimit="10"/>
</g>
<defs>
<clipPath id="clip0_2_1155">
<rect width="209" height="209" fill="white" transform="translate(99.9127) rotate(28.5582)"/>
</clipPath>
</defs>
</svg>
