<svg width="341" height="341" viewBox="0 0 341 341" fill="none" xmlns="http://www.w3.org/2000/svg">
<path d="M170.5 83.5752L204.404 0L203.75 90.1926L267.065 25.9794L231.936 109.064L315.021 73.9351L250.807 137.25L341 136.596L257.425 170.5L341 204.404L250.807 203.75L315.021 267.065L231.936 231.936L267.065 315.021L203.75 250.807L204.404 341L170.5 257.425L136.596 341L137.25 250.807L73.9351 315.021L109.064 231.936L25.9794 267.065L90.1926 203.75L0 204.404L83.5752 170.5L0 136.596L90.1926 137.25L25.9794 73.9351L109.064 109.064L73.9351 25.9794L137.25 90.1926L136.596 0L170.5 83.5752Z" fill="#FF8A8A"/>
</svg>
