<svg width="375" height="243" viewBox="0 0 375 243" fill="none" xmlns="http://www.w3.org/2000/svg">
<path d="M-9.29348 324.72C3.29194 324.114 13.9017 311.589 21.0446 291.522C22.7786 296.344 24.4982 300.867 26.5077 305.175C37.718 330.065 52.0757 343.389 66.7587 342.682C78.0456 342.139 88.3339 333.334 96.4876 317.623C109.479 346.231 125.93 361.458 142.911 360.64C153.598 360.125 163.479 353.242 171.886 340.723C185.722 366.087 202.182 379.41 219.063 378.597C229.251 378.107 238.694 372.546 247.212 362.324C261.637 385.357 278.234 397.373 295.215 396.555C316.79 395.516 335.866 373.773 348.94 335.5C361.748 297.94 367.377 248.512 364.865 196.372C362.354 144.233 352.007 95.6744 335.644 59.4196C318.947 22.48 297.875 2.77087 276.3 3.80994C259.419 4.62292 243.954 18.1826 231.809 42.495C222.448 33.1345 212.414 28.5118 202.226 29.0025C185.345 29.8154 170.242 44.6592 158.907 71.2352C149.336 59.5822 138.84 53.6803 128.152 54.195C111.272 55.008 96.3642 71.8446 86.0776 101.474C76.4519 86.6196 65.365 78.8439 54.0781 79.3875C39.3951 80.0946 26.3844 94.7375 17.6179 120.589C16.1315 125.066 14.7595 129.837 13.4921 134.704C4.4538 115.416 -7.31047 103.969 -19.8959 104.575C-45.0667 105.787 -62.5155 155.084 -59.5474 216.712C-56.5793 278.341 -34.4643 325.932 -9.29348 324.72ZM89.9304 119.109C100.579 142.724 107.417 174.532 109.067 208.792C110.717 243.052 106.962 275.27 98.6375 299.899C98.0249 301.731 97.4075 303.463 96.7852 305.094C86.7062 278.749 80.305 245.618 78.6021 210.259C76.8992 174.9 80.0869 141.308 87.5875 114.116C88.2686 115.785 89.1494 117.444 89.9304 119.109ZM276.445 8.90885C295.823 7.97561 315.144 26.6678 330.945 61.6482C347.08 97.3133 357.299 145.277 359.776 196.718C362.254 248.158 356.691 296.882 344.059 333.933C331.692 370.27 314.257 390.732 294.879 391.665C279.397 392.411 264.013 380.637 250.416 358.165C256.704 349.453 262.258 337.972 267.003 324.228C278.405 290.741 283.399 246.85 281.167 200.504C278.935 154.157 269.646 110.954 255.178 78.7127C249.13 65.3882 242.504 54.5945 235.407 46.5266C246.782 22.852 260.963 9.65449 276.445 8.90885ZM247.688 353.491C245.169 349.007 242.736 344.219 240.384 339.026C224.245 303.261 214.025 255.297 211.548 203.856C209.071 152.416 214.633 103.692 227.265 66.6415C229.108 61.2466 231.065 56.1466 233.146 51.5411C239.314 59.0531 245.194 68.8816 250.675 80.8318C265.014 112.479 274.075 155.092 276.273 200.739C278.471 246.386 273.548 289.673 262.317 322.552C258.014 335.073 253.106 345.421 247.688 353.491ZM202.471 34.0966C211.661 33.654 220.791 38.2201 229.538 47.3098C227.096 52.7335 224.773 58.552 222.579 64.965C209.676 102.629 204.048 152.057 206.554 204.097C209.06 256.137 219.413 304.795 235.776 341.05C238.571 347.122 241.447 352.791 244.399 357.955C236.665 367.838 227.916 373.265 218.827 373.703C203.445 374.444 188.084 361.067 174.961 335.969C178.753 329.479 182.183 321.706 185.161 312.852C195.162 283.537 199.517 245.083 197.564 204.53C195.611 163.977 187.481 126.124 174.808 97.9011C170.994 89.3748 166.838 82.0662 162.434 75.8709C172.984 49.633 187.089 34.8374 202.471 34.0966ZM170.623 326.968C156.284 295.321 147.224 252.707 145.025 207.06C142.827 161.413 147.75 118.126 158.981 85.2479C159.423 84.0252 159.865 82.8025 160.211 81.6846C163.767 86.9196 167.067 93.0679 170.205 100.025C182.749 127.654 190.646 164.817 192.57 204.77C194.494 244.724 190.205 282.474 180.375 311.18C177.92 318.407 175.126 324.849 172.19 330.396C171.637 329.322 171.08 328.147 170.623 326.968ZM90.6975 103.854C100.081 76.2709 113.819 60.0913 128.402 59.389C137.891 58.932 147.698 65.0673 156.67 76.7492C155.777 78.9948 154.984 81.2355 154.2 83.6761C142.798 117.163 137.804 161.054 140.036 207.401C142.268 253.747 151.557 296.95 166.025 329.191C167.034 331.446 168.144 333.695 169.148 335.849C161.34 348.339 152.169 355.388 142.68 355.845C128.097 356.548 112.868 341.763 100.877 315.209C100.424 314.13 99.8669 312.955 99.4097 311.776C100.759 308.607 102.098 305.239 103.324 301.576C111.924 276.433 115.64 243.416 113.966 208.656C112.292 173.897 105.32 141.394 94.4433 117.189C92.8718 113.661 91.2147 110.437 89.5673 107.413C89.9091 106.195 90.251 104.977 90.6975 103.854ZM22.4087 122.361C30.3917 98.9496 42.0377 85.0733 54.4233 84.4768C64.5116 83.9909 75.0281 92.3948 84.1832 107.872C75.5417 136.321 71.7799 172.544 73.6079 210.5C75.4359 248.456 82.6565 284.05 93.9967 311.636C86.4712 327.917 76.811 337.293 66.6228 337.783C54.2372 338.38 41.3164 325.787 31.1157 303.151C28.4202 297.074 25.9005 290.487 23.6563 283.387C29.1349 264.101 31.6569 239.552 30.358 212.583C29.0592 185.614 24.0898 161.425 16.8831 142.75C18.4393 135.567 20.2098 128.674 22.4087 122.361ZM20.7781 273.514C16.0023 255.423 13.0088 234.843 11.9793 213.468C10.9499 192.093 12.0517 171.316 14.9669 152.854C20.4889 169.808 24.2911 190.549 25.3638 212.823C26.4366 235.097 24.7451 256.103 20.7781 273.514ZM-19.6457 109.769C-8.05917 109.211 3.18761 122.385 11.6133 143.505C7.41509 164.431 5.77768 188.637 6.98512 213.708C8.19257 238.779 12.1486 262.717 18.3384 283.143C11.9813 304.974 2.05257 319.168 -9.53401 319.726C-31.2089 320.77 -51.8016 273.606 -54.5436 216.672C-57.2856 159.738 -41.3206 110.813 -19.6457 109.769Z" fill="#FF8A8A"/>
</svg>
