<svg width="117" height="117" viewBox="0 0 117 117" fill="none" xmlns="http://www.w3.org/2000/svg">
<g clip-path="url(#clip0_2_1145)">
<path d="M76.9217 6.62523C86.3402 6.44388 95.7587 7.0201 105.089 8.34512C110.185 9.16412 115.538 16.2485 115.538 21.1859C115.538 24.3741 114.552 28.7909 109.313 29.6391C108.588 29.8731 107.842 30.0428 107.09 30.1451C108.664 35.7524 108.833 49.1576 108.833 60.5944C108.833 73.9997 108.497 90.1954 106.017 93.2081C105.356 94.8754 103.662 96.139 101.354 97.1043C100.605 100.334 98.9354 103.277 96.5486 105.578C94.1617 107.879 91.1594 109.44 87.9046 110.071C84.6498 110.702 81.2818 110.377 78.2079 109.135C75.134 107.893 72.4857 105.787 70.5832 103.071C69.3672 102.221 68.2661 101.217 67.3072 100.085H57.7132V100.097C57.7135 101.496 57.429 102.88 56.8769 104.166C56.3249 105.451 55.5169 106.611 54.5022 107.575C53.4874 108.538 52.2872 109.284 50.9746 109.769C49.662 110.253 48.2645 110.466 46.8673 110.393C44.3118 110.352 41.8663 109.346 40.0228 107.576C38.1688 109.348 35.7136 110.354 33.149 110.393C31.1944 110.495 29.251 110.038 27.5464 109.076C25.8417 108.114 24.4461 106.687 23.5229 104.961C21.4616 103.859 19.8361 102.089 18.9131 99.9415C17.55 96.762 12.285 92.9741 12.285 92.9741C5.7067 89.0663 1.46252 74.8742 1.46252 68.4246C1.46252 61.5509 6.28 45.1299 13.4901 42.5091C13.7621 42.3161 14.0546 42.1581 14.3618 42.0323C14.081 39.4584 14.0576 36.9867 14.04 35.1703C14.0254 33.5469 14.0137 32.4442 13.8265 32.257C11.9955 31.3854 11.6591 26.8779 11.6591 23.6663C11.6591 20.4575 11.9955 16.0613 13.8265 15.216C16.9372 13.927 20.294 13.3407 23.6574 13.499C27.0293 13.3423 30.3944 13.9285 33.5147 15.216C35.3984 16.5439 35.6499 19.3402 35.6499 24.4297C35.6499 27.7525 35.2609 31.4292 33.4328 32.3038C33.3538 32.8274 33.2368 37.9227 33.1841 38.4492C34.9479 38.303 41.0992 37.7853 42.8951 37.6946C43.2344 30.9612 43.8809 25.5558 45.1766 23.7803C44.2601 22.8741 43.5494 21.7813 43.0926 20.5761C42.6359 19.3709 42.4438 18.0815 42.5295 16.7955C42.5295 13.6131 43.5152 9.19045 48.7539 8.3422C58.0847 7.0201 67.5032 6.4468 76.9217 6.62523Z" fill="#00034A" stroke="#00034A" stroke-width="1.88309" stroke-miterlimit="10"/>
<path d="M105.086 8.34492C95.7584 7.01863 86.3389 6.44349 76.9188 6.62502C67.4996 6.44572 58.0812 7.02085 48.7539 8.34492C43.5152 9.19024 42.5295 13.6099 42.5295 16.7952C42.4444 18.0812 42.6367 19.3704 43.0934 20.5756C43.5501 21.7807 44.2606 22.8736 45.1766 23.7801C43.8809 25.5556 43.2344 30.961 42.8951 37.6944C39.6604 37.8713 36.4303 38.1249 33.2075 38.4549C33.1095 36.3837 33.2133 34.3079 33.5176 32.2568C35.3457 31.3851 35.685 26.9918 35.685 23.6661C35.685 20.3433 35.3457 15.9499 33.5176 15.2157C30.3973 13.9283 27.0322 13.3421 23.6603 13.4988C20.296 13.3401 16.9381 13.9264 13.8265 15.2157C11.9955 16.064 11.6591 20.4573 11.6591 23.669C11.6591 26.8777 11.9955 31.3851 13.8265 32.2568C14.2214 32.6517 13.8265 37.1591 14.3618 42.0321C14.0532 42.1569 13.7606 42.318 13.4901 42.5118C6.28 45.1297 1.46252 61.5536 1.46252 68.4244C1.46252 75.2982 6.28 90.9557 13.6013 93.6057C17.2634 96.168 36.7848 95.858 53.0361 95.858H70.2731H73.6252C83.1168 95.858 99.371 95.0683 101.793 88.9843C104.27 85.9715 104.61 69.7758 104.61 56.3705C104.61 44.9337 104.44 31.5255 102.863 25.9212C103.618 25.8174 104.362 25.6471 105.086 25.4123C110.325 24.567 111.314 20.1473 111.314 16.962C111.314 13.7796 110.328 9.19024 105.086 8.34492Z" fill="#FAE938" stroke="#00034A" stroke-width="1.88309" stroke-miterlimit="10"/>
<path d="M87.5952 53.58C90.216 52.2286 90.7249 45.2993 90.7249 40.0606C90.7249 34.822 90.1867 27.8341 87.5952 26.4828C86.3023 25.1314 79.3437 23.666 73.5142 23.666C67.6818 23.666 60.7817 25.0203 59.4303 26.4828C56.8095 27.8371 56.3298 34.7635 56.3298 39.9758C56.3298 45.1852 56.8095 52.1438 59.4303 53.4952C60.7524 54.8202 67.7081 54.6798 73.5142 54.6798C79.3145 54.6798 86.3023 54.8202 87.5952 53.58Z" fill="white" stroke="#00034A" stroke-width="1.88309" stroke-miterlimit="10"/>
<path d="M15.2099 78.706C15.7539 75.2399 15.9879 71.7328 15.9119 68.2258C15.989 64.7194 15.754 61.2131 15.2099 57.7484" stroke="#00034A" stroke-width="1.88309" stroke-miterlimit="10" stroke-linecap="round"/>
<path d="M80.414 106.169C84.9638 106.169 89.3273 104.361 92.5445 101.144C95.7617 97.9269 97.5691 93.5635 97.5691 89.0136C97.5691 84.4638 95.7617 80.1004 92.5445 76.8831C89.3273 73.6659 84.9638 71.8585 80.414 71.8585C75.8642 71.8585 71.5007 73.6659 68.2835 76.8831C65.0663 80.1004 63.2589 84.4638 63.2589 89.0136C63.2589 93.5635 65.0663 97.9269 68.2835 101.144C71.5007 104.361 75.8642 106.169 80.414 106.169Z" fill="white" stroke="#00034A" stroke-width="1.88309" stroke-miterlimit="10"/>
<path d="M42.6436 85.5766C40.107 85.5778 37.6637 86.5332 35.7991 88.253C33.9236 86.5318 31.4708 85.5768 28.9253 85.5766C27.5319 85.5101 26.1396 85.7272 24.8325 86.2146C23.5255 86.7021 22.331 87.4498 21.3214 88.4124C20.3118 89.375 19.5081 90.5325 18.9589 91.8148C18.4098 93.0972 18.1266 94.4776 18.1266 95.8726C18.1266 97.2675 18.4098 98.648 18.9589 99.9303C19.5081 101.213 20.3118 102.37 21.3214 103.333C22.331 104.295 23.5255 105.043 24.8325 105.531C26.1396 106.018 27.5319 106.235 28.9253 106.169C31.4898 106.13 33.9451 105.124 35.7991 103.352C37.6418 105.121 40.0871 106.128 42.6436 106.166C44.0393 106.236 45.4347 106.022 46.7452 105.537C48.0556 105.051 49.2537 104.304 50.2665 103.342C51.2793 102.379 52.0857 101.22 52.6368 99.9357C53.1879 98.6515 53.472 97.2686 53.472 95.8711C53.472 94.4736 53.1879 93.0908 52.6368 91.8065C52.0857 90.5223 51.2793 89.3635 50.2665 88.4006C49.2537 87.4377 48.0556 86.6909 46.7452 86.2054C45.4347 85.7199 44.0393 85.506 42.6436 85.5766Z" fill="white" stroke="#00034A" stroke-width="1.88309" stroke-miterlimit="10"/>
<path d="M85.2578 84.1405L75.5673 93.8574" stroke="#00034A" stroke-width="1.88309" stroke-miterlimit="10" stroke-linecap="round"/>
<path d="M85.2578 93.8574L75.5673 84.1405" stroke="#00034A" stroke-width="1.88309" stroke-miterlimit="10" stroke-linecap="round"/>
</g>
<defs>
<clipPath id="clip0_2_1145">
<rect width="117" height="117" fill="white"/>
</clipPath>
</defs>
</svg>
